<svg width="48" height="48" viewBox="0 0 48 48" fill="none" xmlns="http://www.w3.org/2000/svg">
<g opacity="0.8">
<path d="M33.5526 38.786H14.4474C12.2368 38.786 10.5 36.8884 10.5 34.8326V10.9535C10.5 8.73953 12.2368 7 14.4474 7H33.5526C35.7632 7 37.5 8.73953 37.5 10.9535V34.8326C37.5 37.0465 35.7632 38.786 33.5526 38.786ZM14.4474 8.42326C13.0263 8.42326 11.9211 9.53023 11.9211 10.9535V34.8326C11.9211 36.2558 13.0263 37.3628 14.4474 37.3628H33.5526C34.9737 37.3628 36.0789 36.2558 36.0789 34.8326V10.9535C36.0789 9.53023 34.9737 8.42326 33.5526 8.42326H14.4474ZM13.9737 39.5767H18.8684V41H13.9737V39.5767ZM29.1316 39.5767H34.0263V41H29.1316V39.5767Z" fill="currentColor"/>
<path d="M24.0788 34.8328C19.8157 34.8328 16.4999 31.3537 16.4999 27.2421C16.4999 22.9723 19.9736 19.6514 24.0788 19.6514C28.1841 19.6514 31.6578 23.1304 31.6578 27.2421C31.6578 31.3537 28.1841 34.8328 24.0788 34.8328ZM24.0788 21.0746C20.6051 21.0746 17.9209 23.9211 17.9209 27.2421C17.9209 30.563 20.6051 33.4095 24.0788 33.4095C27.3946 33.4095 30.2367 30.563 30.2367 27.2421C30.2367 23.763 27.3946 21.0746 24.0788 21.0746Z" fill="currentColor"/>
<path d="M24.0788 30.5629C22.1841 30.5629 20.6052 29.1396 20.6052 27.2419C20.6052 25.3442 22.1841 23.7629 24.0788 23.7629C25.9736 23.7629 27.3946 25.1861 27.3946 27.2419C27.3946 29.1396 25.9736 30.5629 24.0788 30.5629ZM24.0788 25.1861C22.9736 25.1861 22.0262 25.9768 22.0262 27.0838C22.0262 28.1908 22.9736 28.9815 24.0788 28.9815C25.1841 28.9815 26.1315 28.1908 26.1315 27.0838C25.9736 26.1349 25.1841 25.1861 24.0788 25.1861ZM24.0788 17.7536C22.1841 17.7536 20.6052 16.1722 20.6052 14.2745C20.6052 12.3768 22.1841 10.9535 24.0788 10.9535C25.9736 10.9535 27.3946 12.3768 27.3946 14.2745C27.3946 16.1722 25.9736 17.7536 24.0788 17.7536ZM24.0788 12.3768C22.9736 12.3768 22.0262 13.3256 22.0262 14.2745C22.0262 15.3815 22.9736 16.3303 24.0788 16.3303C25.1841 16.3303 26.1315 15.5396 26.1315 14.2745C25.9736 13.3256 25.1841 12.3768 24.0788 12.3768ZM14.7631 10.7954C14.2894 10.7954 13.9736 11.1117 13.9736 11.5861C13.9736 12.0605 14.2894 12.3768 14.7631 12.3768C15.2367 12.3768 15.5525 12.0605 15.5525 11.5861C15.5525 11.1117 15.0788 10.7954 14.7631 10.7954ZM33.8683 10.9535C33.7104 10.7954 33.5525 10.7954 33.3946 10.7954C32.921 10.7954 32.6052 11.1117 32.6052 11.5861C32.6052 12.0605 32.921 12.3768 33.3946 12.3768C33.8683 12.3768 34.1841 12.0605 34.1841 11.5861C34.1841 11.2698 34.0262 11.1117 33.8683 10.9535ZM14.7631 33.4094C14.2894 33.4094 13.9736 33.7256 13.9736 34.2001C13.8157 34.6745 14.1315 34.9908 14.7631 34.9908C15.2367 34.9908 15.5525 34.6745 15.5525 34.2001C15.5525 33.7256 15.0788 33.4094 14.7631 33.4094ZM33.3946 33.4094C32.921 33.4094 32.6052 33.7256 32.6052 34.2001C32.6052 34.6745 32.921 34.9908 33.3946 34.9908C33.8683 34.9908 34.1841 34.6745 34.1841 34.2001C34.1841 33.7256 33.8683 33.4094 33.3946 33.4094Z" fill="currentColor"/>
</g>
</svg>
