<svg width="48" height="48" viewBox="0 0 48 48" fill="none" xmlns="http://www.w3.org/2000/svg">
<path d="M10.6956 18.4414H37.3043V32.7355C37.3043 35.4355 35.2695 37.5002 32.6086 37.5002H15.3912C12.7303 37.5002 10.6956 35.4355 10.6956 32.7355V18.4414Z" stroke="currentColor" stroke-linecap="round" stroke-linejoin="round"/>
<path d="M16.9565 34.3233H16.1739C14.9217 34.3233 13.8261 33.2116 13.8261 31.941V31.1469M37.3043 20.0292H41.2174C41.687 20.0292 42 20.3469 42 20.8233V21.4586C42 22.5704 41.5304 23.5233 40.5913 24.1586L37.3043 26.3822M10.6957 20.0292H6.78261C6.31304 20.0292 6 20.3469 6 20.8233V21.4586C6 22.5704 6.46957 23.5233 7.4087 24.1586L10.6957 26.3822M15.3913 13.6763H32.6087C35.2696 13.6763 37.3043 15.741 37.3043 18.441H10.6957C10.6957 15.741 12.7304 13.6763 15.3913 13.6763Z" stroke="currentColor" stroke-linecap="round" stroke-linejoin="round"/>
<path d="M24 13.6765C24.8645 13.6765 25.5652 12.9654 25.5652 12.0882C25.5652 11.2111 24.8645 10.5 24 10.5C23.1356 10.5 22.4348 11.2111 22.4348 12.0882C22.4348 12.9654 23.1356 13.6765 24 13.6765Z" stroke="currentColor" stroke-linecap="round" stroke-linejoin="round"/>
</svg>
