<?xml version="1.0" encoding="UTF-8"?>
<svg xmlns="http://www.w3.org/2000/svg" version="1.1" viewBox="0 0 100 100">
  <defs>
    <style>
      .cls-1 {
        fill: #868788;
      }
    </style>
  </defs>
  <!-- Generator: Adobe Illustrator 28.6.0, SVG Export Plug-In . SVG Version: 1.2.0 Build 709)  -->
  <g>
    <g id="Layer_1">
      <g>
        <path class="cls-1" d="M31.1,69.3c-.8,0-1.4-.6-1.4-1.4v-25.7c0-.8.6-1.4,1.4-1.4s1.4.6,1.4,1.4v25.7c0,.8-.6,1.4-1.4,1.4Z"/>
        <path class="cls-1" d="M68.9,69.3c-.8,0-1.4-.6-1.4-1.4v-25.7c0-.8.6-1.4,1.4-1.4s1.4.6,1.4,1.4v25.7c0,.8-.6,1.4-1.4,1.4Z"/>
        <path class="cls-1" d="M75.7,32.4H24.3c-3.5,0-6.4-2.9-6.4-6.4v-5.4c0-3.5,2.9-6.4,6.4-6.4h51.5c3.5,0,6.4,2.9,6.4,6.4v5.4c0,3.5-2.9,6.4-6.4,6.4ZM24.3,17c-2,0-3.6,1.6-3.6,3.6v5.4c0,2,1.6,3.6,3.6,3.6h51.5c2,0,3.6-1.6,3.6-3.6v-5.4c0-2-1.6-3.6-3.6-3.6H24.3Z"/>
        <path class="cls-1" d="M39.4,32.4h-8.8c-.8,0-1.4-.6-1.4-1.4v-15.4c0-.8.6-1.4,1.4-1.4h8.8c.8,0,1.4.6,1.4,1.4v15.4c0,.8-.6,1.4-1.4,1.4ZM32,29.6h6v-12.6h-6v12.6Z"/>
        <path class="cls-1" d="M69.4,32.4h-8.8c-.8,0-1.4-.6-1.4-1.4v-15.4c0-.8.6-1.4,1.4-1.4h8.8c.8,0,1.4.6,1.4,1.4v15.4c0,.8-.6,1.4-1.4,1.4ZM62,29.6h6v-12.6h-6v12.6Z"/>
        <path class="cls-1" d="M70.2,85.8H29.8c-3.5,0-6.4-2.9-6.4-6.4v-6.6c0-3.5,2.9-6.4,6.4-6.4h10.2c.8,0,1.4.6,1.4,1.4s-.6,1.4-1.4,1.4h-10.2c-2,0-3.6,1.6-3.6,3.6v6.6c0,2,1.6,3.6,3.6,3.6h40.3c2,0,3.6-1.6,3.6-3.6v-6.6c0-2-1.6-3.6-3.6-3.6h-22.7c-.8,0-1.4-.6-1.4-1.4s.6-1.4,1.4-1.4h22.7c3.5,0,6.4,2.9,6.4,6.4v6.6c0,3.5-2.9,6.4-6.4,6.4h0Z"/>
        <path class="cls-1" d="M31.1,58.5h-7.1c-2.7,0-4.9-2.2-4.9-4.9s2.2-4.9,4.9-4.9h7.1c.8,0,1.4.6,1.4,1.4s-.6,1.4-1.4,1.4h-7.1c-1.2,0-2.1.9-2.1,2.1s.9,2.1,2.1,2.1h7.1c.8,0,1.4.6,1.4,1.4s-.6,1.4-1.4,1.4h0Z"/>
        <path class="cls-1" d="M24.8,74.8c-2.6,0-4.8-2.1-4.8-4.8v-14.1c0-.8.6-1.4,1.4-1.4s1.4.6,1.4,1.4v14.1c0,1.1.9,1.9,1.9,1.9s1.4.6,1.4,1.4-.6,1.4-1.4,1.4Z"/>
        <path class="cls-1" d="M75.9,58.5h-7.1c-.8,0-1.4-.6-1.4-1.4s.6-1.4,1.4-1.4h7.1c1.2,0,2.1-.9,2.1-2.1s-.9-2.1-2.1-2.1h-7.1c-.8,0-1.4-.6-1.4-1.4s.6-1.4,1.4-1.4h7.1c2.7,0,4.9,2.2,4.9,4.9s-2.2,4.9-4.9,4.9h0Z"/>
        <path class="cls-1" d="M75.2,74.8c-.8,0-1.4-.6-1.4-1.4s.6-1.4,1.4-1.4,1.9-.9,1.9-1.9v-14.1c0-.8.6-1.4,1.4-1.4s1.4.6,1.4,1.4v14.1c0,2.6-2.1,4.8-4.8,4.8h0Z"/>
        <path class="cls-1" d="M44.3,55.8h-6.4c-.8,0-1.4-.6-1.4-1.4v-15.7c0-.8.6-1.4,1.4-1.4h6.4c.8,0,1.4.6,1.4,1.4v15.7c0,.8-.6,1.4-1.4,1.4ZM39.3,53h3.6v-12.9h-3.6v12.9Z"/>
        <path class="cls-1" d="M45.3,61.5h-8.5c-1.3,0-2.4-1.1-2.4-2.4v-3.8c0-1.3,1.1-2.4,2.4-2.4h8.5c1.3,0,2.4,1.1,2.4,2.4v3.8c0,1.3-1.1,2.4-2.4,2.4ZM37.2,58.7h7.7v-2.9h-7.7v2.9Z"/>
        <path class="cls-1" d="M62.1,55.8h-6.4c-.8,0-1.4-.6-1.4-1.4v-15.7c0-.8.6-1.4,1.4-1.4h6.4c.8,0,1.4.6,1.4,1.4v15.7c0,.8-.6,1.4-1.4,1.4ZM57.1,53h3.6v-12.9h-3.6v12.9Z"/>
        <path class="cls-1" d="M63.2,61.5h-8.5c-1.3,0-2.4-1.1-2.4-2.4v-3.8c0-1.3,1.1-2.4,2.4-2.4h8.5c1.3,0,2.4,1.1,2.4,2.4v3.8c0,1.3-1.1,2.4-2.4,2.4ZM55.1,58.7h7.7v-2.9h-7.7v2.9Z"/>
        <path class="cls-1" d="M69.3,43.5h-7.2c-.8,0-1.4-.6-1.4-1.4v-2h-3.6v2c0,.8-.6,1.4-1.4,1.4h-11.4c-.8,0-1.4-.6-1.4-1.4v-2h-3.6v2c0,.8-.6,1.4-1.4,1.4h-7.2c-4,0-7.3-3.3-7.3-7.3v-5.3c0-.8.6-1.4,1.4-1.4h50.3c.8,0,1.4.6,1.4,1.4v5.3c0,4-3.3,7.3-7.3,7.3h0ZM63.5,40.7h5.8c2.4,0,4.4-2,4.4-4.4v-3.9H26.2v3.9c0,2.4,2,4.4,4.4,4.4h5.8v-2c0-.8.6-1.4,1.4-1.4h6.4c.8,0,1.4.6,1.4,1.4v2h8.6v-2c0-.8.6-1.4,1.4-1.4h6.4c.8,0,1.4.6,1.4,1.4v2Z"/>
        <path class="cls-1" d="M68.9,77.5H31.1c-.8,0-1.4-.6-1.4-1.4s.6-1.4,1.4-1.4h37.8c.8,0,1.4.6,1.4,1.4s-.6,1.4-1.4,1.4Z"/>
      </g>
    </g>
  </g>
</svg>