<?xml version="1.0" standalone="no"?>
<!DOCTYPE svg PUBLIC "-//W3C//DTD SVG 20010904//EN"
 "http://www.w3.org/TR/2001/REC-SVG-20010904/DTD/svg10.dtd">
<svg version="1.0" xmlns="http://www.w3.org/2000/svg"
 width="608.000000pt" height="608.000000pt" viewBox="0 0 608.000000 608.000000"
 preserveAspectRatio="xMidYMid meet">

<g transform="translate(0.000000,608.000000) scale(0.100000,-0.100000)"
fill="#000000" stroke="none">
<path d="M2650 5869 c-178 -25 -283 -47 -435 -93 -27 -8 -68 -20 -90 -26 -22
-6 -54 -18 -72 -26 -17 -8 -36 -14 -42 -14 -6 0 -19 -4 -29 -10 -9 -5 -35 -17
-57 -26 -589 -246 -1120 -733 -1412 -1295 -137 -262 -208 -472 -283 -829 -38
-178 -47 -611 -18 -830 33 -247 73 -416 150 -630 33 -93 41 -113 87 -213 17
-37 31 -69 31 -71 0 -18 209 -367 252 -421 5 -5 22 -28 39 -50 63 -83 86 -110
169 -201 124 -136 216 -218 425 -382 6 -4 51 -34 100 -66 50 -32 101 -66 115
-75 45 -31 333 -169 420 -201 160 -60 155 -58 315 -103 136 -39 307 -70 475
-87 201 -21 591 -5 755 31 28 6 82 18 120 26 105 23 348 102 450 146 360 155
649 351 930 632 71 72 140 144 153 160 239 314 312 428 415 646 153 324 217
556 267 974 15 123 8 423 -14 585 -126 935 -712 1763 -1537 2170 -66 32 -161
75 -212 95 -50 20 -101 40 -112 45 -11 5 -54 18 -95 30 -41 12 -86 25 -100 30
-86 28 -218 54 -410 80 -192 26 -564 26 -750 -1z m880 -248 c47 -6 103 -15
125 -20 22 -6 60 -15 85 -20 105 -23 274 -73 335 -100 11 -5 45 -19 75 -31
281 -112 573 -303 814 -530 60 -57 202 -210 246 -266 112 -141 230 -319 230
-345 0 -10 -12 -27 -27 -39 -16 -12 -44 -36 -63 -53 -101 -92 -505 -432 -645
-542 -27 -22 -52 -42 -55 -45 -3 -3 -36 -30 -75 -60 -38 -30 -72 -57 -75 -60
-3 -3 -45 -37 -95 -75 -49 -38 -106 -82 -125 -97 -19 -16 -39 -32 -45 -36
-127 -96 -125 -95 -150 -84 -21 10 -32 6 -88 -32 -109 -72 -132 -80 -232 -81
-91 0 -126 10 -280 80 -73 34 -148 47 -224 41 -42 -3 -89 -7 -106 -9 l-30 -2
-3 107 -3 106 28 6 c15 3 57 10 93 16 107 18 178 45 275 104 230 139 367 363
392 644 8 88 2 91 -159 92 -126 0 -215 -14 -285 -46 -17 -8 -34 -14 -38 -14
-11 0 -127 -80 -151 -104 -60 -61 -139 -193 -168 -280 -9 -25 -17 -15 -50 66
-47 113 -137 223 -233 285 -29 18 -55 33 -59 33 -3 0 -20 6 -37 14 -70 32
-159 46 -285 46 -90 -1 -132 -5 -144 -14 -51 -38 17 -323 111 -466 125 -190
325 -323 541 -359 123 -21 110 -6 110 -132 l0 -111 -27 6 c-16 4 -62 10 -105
13 -81 6 -159 -12 -271 -61 -140 -61 -139 -61 -232 -61 -98 1 -130 11 -219 73
-27 19 -63 40 -80 47 -74 32 -480 383 -731 632 -250 248 -485 506 -485 532 0
27 157 242 290 395 211 245 550 495 850 625 30 13 74 32 97 42 23 11 48 19 55
19 8 0 18 4 23 8 10 9 98 38 200 66 33 9 74 21 90 26 17 4 50 11 75 15 25 3
59 10 75 15 142 43 605 54 865 21z m-2570 -1378 c293 -340 716 -743 1037 -990
40 -30 73 -62 73 -69 0 -8 -24 -47 -53 -87 -29 -39 -64 -90 -79 -112 -15 -22
-54 -78 -87 -125 -33 -47 -81 -115 -107 -152 -25 -38 -49 -68 -52 -68 -7 0
-85 63 -142 114 -25 23 -79 70 -120 106 -319 279 -830 771 -830 800 0 17 35
138 50 175 4 11 22 61 40 110 48 133 171 385 189 385 3 0 40 -39 81 -87z
m4558 -63 c18 -34 49 -102 68 -149 20 -47 43 -100 50 -118 8 -17 14 -36 14
-42 0 -6 4 -19 9 -29 12 -22 51 -151 51 -169 0 -8 -64 -78 -142 -156 -229
-229 -393 -371 -630 -548 -177 -131 -380 -269 -397 -269 -5 0 -14 -7 -21 -15
-19 -23 -48 -18 -67 13 -10 15 -21 32 -26 37 -28 36 -127 176 -127 180 0 3
-24 38 -53 78 -77 106 -107 152 -107 164 0 6 52 50 116 97 63 48 125 96 137
106 12 10 103 83 202 162 319 254 349 279 658 545 117 100 217 181 222 179 6
-1 25 -31 43 -66z m-2868 24 c154 -49 275 -156 339 -299 35 -78 62 -186 67
-270 6 -103 14 -106 -87 34 -93 128 -337 361 -378 361 -29 0 -13 -24 57 -81
142 -117 293 -285 362 -403 20 -32 20 -37 5 -42 -9 -4 -27 -2 -41 5 -14 6 -34
11 -44 11 -36 0 -144 43 -213 84 -171 102 -295 265 -348 458 -19 69 -25 148
-11 163 13 13 234 -2 292 -21z m1184 -39 c-1 -57 -14 -125 -33 -170 -89 -215
-238 -367 -437 -446 -54 -21 -193 -54 -200 -46 -15 15 97 183 216 322 67 78
237 238 299 282 3 2 0 8 -7 15 -17 17 -79 -30 -212 -162 -119 -118 -170 -179
-272 -328 -38 -57 -59 -80 -63 -70 -3 8 3 64 14 125 20 113 56 219 98 287 66
105 180 192 292 225 87 26 109 29 216 27 l90 -1 -1 -60z m1909 -607 c3 -18 13
-73 21 -123 54 -306 46 -685 -23 -1010 -11 -50 -13 -59 -52 -195 -89 -315
-246 -614 -465 -890 -93 -117 -82 -112 -256 -121 -84 -5 -202 -14 -263 -19
-110 -11 -307 -20 -845 -41 -327 -12 -1728 -5 -1855 10 -44 5 -181 12 -305 16
-124 4 -229 9 -233 12 -5 3 -70 8 -144 12 l-136 7 -39 45 c-63 70 -182 229
-241 320 -50 76 -163 288 -194 365 -83 200 -132 371 -169 584 -47 274 -47 599
1 880 23 138 30 165 42 165 6 0 101 -88 210 -195 110 -107 224 -218 254 -245
135 -126 293 -268 399 -360 135 -117 157 -137 188 -163 12 -11 22 -26 22 -33
0 -8 15 -24 33 -37 17 -12 61 -44 97 -70 36 -26 84 -60 108 -76 23 -16 42 -33
42 -39 0 -5 -16 -34 -35 -63 -62 -94 -58 -178 14 -248 32 -31 48 -39 88 -43
91 -8 89 -6 90 -68 3 -108 63 -166 182 -175 l75 -5 9 -40 c14 -58 68 -120 123
-141 40 -15 54 -16 103 -6 31 7 57 9 59 4 13 -40 45 -82 80 -107 37 -26 53
-30 105 -30 81 1 111 17 170 91 l49 61 90 -61 c87 -59 92 -61 152 -60 103 1
170 57 185 152 5 30 12 46 20 44 7 -1 33 -5 57 -9 97 -13 197 63 210 159 l7
48 61 0 c51 0 70 5 107 28 49 32 89 96 89 144 0 28 2 30 28 23 108 -28 184 -4
233 74 36 56 40 140 10 200 l-20 38 125 99 c118 93 137 115 114 129 -5 3 -10
10 -10 14 0 5 57 45 128 90 140 90 164 106 332 230 111 82 238 183 310 247
107 95 266 244 345 323 49 50 95 91 101 91 7 0 14 -15 17 -32z m-2745 -404
c21 -6 7 -20 -101 -95 -265 -186 -287 -210 -287 -307 0 -51 10 -80 45 -122 38
-48 74 -63 145 -63 64 0 70 2 136 49 327 229 353 244 436 244 85 0 150 -34
375 -198 85 -63 160 -115 308 -217 61 -41 132 -95 158 -118 42 -39 47 -48 47
-86 0 -56 -25 -97 -75 -120 -56 -27 -89 -18 -177 47 -42 31 -85 63 -95 70 -10
7 -76 53 -148 102 -71 50 -140 93 -153 97 -29 7 -46 -9 -38 -33 6 -19 33 -39
241 -185 140 -98 149 -108 149 -167 0 -80 -48 -127 -128 -127 -33 0 -54 10
-103 45 -33 25 -71 52 -83 60 -12 8 -56 40 -98 71 -116 84 -138 95 -156 80
-30 -25 -11 -56 64 -103 55 -35 182 -128 213 -156 23 -22 27 -34 27 -80 0 -48
-4 -58 -34 -88 -30 -30 -40 -34 -84 -34 -44 0 -58 6 -113 47 -103 76 -221 153
-234 153 -7 0 -18 -7 -25 -15 -17 -20 -6 -33 100 -112 94 -71 109 -91 110
-143 0 -49 -30 -92 -79 -115 -52 -23 -69 -18 -176 52 -76 49 -83 61 -66 106
13 34 -8 109 -43 153 -32 40 -101 74 -151 74 -28 0 -32 3 -28 19 6 24 -24 119
-45 144 -36 41 -82 60 -148 60 -61 1 -65 2 -70 26 -18 81 -70 139 -146 160
-40 11 -53 11 -94 -3 -26 -9 -48 -15 -48 -13 -44 108 -88 146 -175 154 -53 5
-68 2 -116 -22 l-55 -28 -43 31 c-23 17 -73 52 -110 78 -38 25 -71 53 -74 60
-3 8 2 24 10 37 9 12 58 81 109 154 51 73 129 184 173 248 44 63 85 115 91
115 6 0 22 -8 35 -18 13 -10 51 -32 84 -48 84 -40 217 -46 314 -14 36 12 71
26 76 30 22 16 163 65 205 70 43 6 119 3 148 -6z m412 -10 c25 -9 54 -20 65
-24 167 -75 195 -82 299 -78 103 4 147 18 259 86 26 16 29 16 40 0 7 -9 37
-53 67 -98 30 -44 76 -109 101 -143 98 -135 200 -290 197 -302 -2 -7 -49 -50
-106 -95 -120 -95 -93 -97 -252 15 -58 42 -142 101 -187 133 -46 31 -127 89
-180 127 -54 39 -122 86 -152 104 -108 66 -264 65 -373 -1 -50 -31 -129 -85
-271 -187 -50 -36 -72 -46 -113 -49 -48 -4 -55 -2 -88 29 -44 41 -55 88 -33
141 12 28 43 55 144 126 70 50 153 109 184 131 144 104 264 130 399 85z
m-1237 -743 c61 -23 98 -100 77 -156 -20 -54 -104 -157 -144 -177 -34 -18 -44
-18 -83 -8 -59 17 -93 58 -93 113 0 34 10 57 57 125 69 102 118 129 186 103z
m337 -169 c35 -34 40 -44 40 -85 0 -40 -7 -55 -58 -124 -32 -43 -73 -99 -90
-125 -18 -27 -46 -55 -62 -63 -69 -36 -147 -6 -174 67 -16 42 -16 46 2 88 11
25 28 54 38 65 11 11 42 53 69 94 67 98 95 121 150 121 37 0 50 -6 85 -38z
m228 -161 c46 -24 72 -67 72 -118 -1 -35 -19 -67 -97 -168 -5 -5 -26 -36 -48
-69 -50 -73 -69 -86 -121 -86 -56 0 -98 35 -113 93 -14 56 -4 91 46 159 22 29
58 80 81 113 40 57 88 94 125 95 10 0 34 -9 55 -19z m239 -240 c41 -26 67 -80
59 -123 -9 -44 -103 -177 -141 -199 -16 -10 -40 -18 -53 -18 -36 -1 -100 36
-117 69 -28 55 -20 91 41 176 31 44 66 87 77 96 29 23 94 23 134 -1z m2093
-660 c0 -13 -155 -158 -249 -233 -83 -66 -84 -67 -160 -73 -42 -3 -112 -10
-156 -15 -494 -59 -1713 -75 -2315 -30 -218 16 -387 30 -504 40 l-110 10 -70
54 c-76 57 -259 226 -253 233 2 2 125 -3 273 -12 148 -8 382 -21 519 -27 329
-15 1723 -15 2055 0 378 18 834 46 958 61 6 0 12 -3 12 -8z m-3210 -376 c74
-4 160 -10 190 -15 30 -5 141 -11 245 -15 105 -3 258 -10 340 -16 275 -20
1372 1 1610 31 44 5 134 12 200 15 66 3 132 8 148 11 16 4 27 1 27 -5 0 -13
-118 -91 -137 -91 -6 0 -13 -4 -15 -8 -1 -5 -66 -39 -143 -76 -77 -38 -148
-73 -159 -78 -22 -11 -117 -24 -291 -38 -71 -5 -182 -14 -245 -20 -189 -16
-640 -22 -875 -11 -446 22 -531 31 -620 70 -239 105 -537 283 -433 258 13 -3
84 -8 158 -12z m2040 -333 c0 -4 -21 -13 -47 -19 -27 -6 -77 -18 -113 -27
-214 -51 -306 -60 -590 -60 -281 0 -353 6 -555 51 -170 38 -178 55 -20 42 154
-12 897 -9 1070 5 199 17 255 18 255 8z"/>
<path d="M2996 4868 c-39 -55 -5 -123 60 -121 103 3 98 143 -5 143 -30 0 -44
-6 -55 -22z"/>
<path d="M4074 4651 c-71 -43 -94 -123 -54 -188 28 -46 72 -66 133 -60 70 6
109 46 115 119 4 48 1 58 -23 86 -52 62 -114 78 -171 43z"/>
<path d="M1945 4596 c-13 -9 -19 -26 -19 -51 0 -46 26 -69 68 -61 54 11 73 64
36 104 -24 25 -58 28 -85 8z"/>
</g>
</svg>
