<svg width="48" height="48" viewBox="0 0 48 48" fill="none" xmlns="http://www.w3.org/2000/svg">
<path d="M17.7151 37.9368C18.0377 37.5934 18.2028 37.1433 18.1796 36.6695C18.1352 35.7564 17.3753 35.0411 16.4496 35.0411H11.2775L9.3229 26.3432C9.22255 25.8967 8.95656 25.5164 8.57396 25.2727C8.19135 25.0288 7.73795 24.9507 7.29723 25.0522C6.38761 25.2622 5.81614 26.1828 6.02325 27.1044L8.27772 37.1365C8.42152 37.7755 8.89776 38.2575 9.49839 38.4149L7.6638 43.0756C7.6263 43.1709 7.63783 43.279 7.69465 43.364C7.75155 43.449 7.84624 43.4998 7.94758 43.4998H10.3287C10.4673 43.4998 10.5885 43.4053 10.624 43.2695L11.8776 38.4699H13.5942V43.1903C13.5942 43.3613 13.731 43.4998 13.8997 43.4998H16.3996C16.4882 43.4998 16.5725 43.4608 16.6304 43.3931C16.6884 43.3253 16.7146 43.2353 16.7021 43.1464L16.0407 38.4699H16.4896C16.9502 38.4699 17.3969 38.2756 17.7151 37.9368ZM8.87355 36.999L6.61908 26.9671C6.48673 26.3783 6.85185 25.79 7.43294 25.6559C7.51351 25.6374 7.59461 25.6282 7.67518 25.6282C7.87648 25.6282 8.07413 25.6855 8.2487 25.7968C8.49316 25.9526 8.66315 26.1954 8.72723 26.4807L10.7359 35.4194C10.7676 35.5602 10.8911 35.6602 11.0337 35.6602H16.4495C17.0491 35.6602 17.541 36.1169 17.5694 36.7C17.5841 37.0029 17.4787 37.2906 17.2725 37.51C17.066 37.7299 16.788 37.8509 16.4897 37.8509H9.92751C9.41989 37.8509 8.98642 37.5006 8.87355 36.999ZM10.0936 42.8808H8.39839L10.1346 38.4699H11.2457L10.0936 42.8808ZM16.0474 42.8808H14.2053V38.4699H15.4237L16.0474 42.8808ZM40.7027 25.0523C40.2623 24.9507 39.8087 25.0289 39.4261 25.2728C39.0435 25.5166 38.7775 25.8968 38.6771 26.3433L36.7226 35.0412H31.5504C30.6248 35.0412 29.8648 35.7564 29.8204 36.6695C29.7972 37.1433 29.9623 37.5934 30.2849 37.9369C30.6032 38.2757 31.0498 38.47 31.5103 38.47H31.9592L31.2978 43.1465C31.2853 43.2354 31.3114 43.3254 31.3694 43.3932C31.4275 43.461 31.5116 43.5 31.6002 43.5H34.1002C34.2689 43.5 34.4057 43.3614 34.4057 43.1905V38.4701H36.1223L37.3759 43.2696C37.4114 43.4054 37.5326 43.5 37.6712 43.5H40.0523C40.1536 43.5 40.2482 43.4492 40.3052 43.3641C40.362 43.2792 40.3736 43.1711 40.3361 43.0758L38.5015 38.415C39.1021 38.2577 39.5783 37.7756 39.7222 37.1366L41.9767 27.1047C42.1838 26.1829 41.6124 25.2622 40.7027 25.0523ZM33.7948 42.8808H31.9527L32.5764 38.4699H33.7948V42.8808ZM37.9065 42.8808L36.7545 38.4699H37.8656L39.6017 42.8808H37.9065ZM41.381 26.9672L39.1266 36.9989C39.0137 37.5006 38.5802 37.851 38.0725 37.851H31.5103C31.212 37.851 30.934 37.73 30.7276 37.5101C30.5214 37.2907 30.4159 37.003 30.4306 36.7001C30.4591 36.117 30.9509 35.6603 31.5505 35.6603H36.9663C37.1089 35.6603 37.2325 35.5603 37.2642 35.4194L39.2729 26.4807C39.337 26.1954 39.5069 25.9525 39.7514 25.7967C39.9959 25.6409 40.2854 25.5909 40.5671 25.6559C41.1483 25.79 41.5134 26.3782 41.381 26.9672ZM42.3495 15.9037L28.0616 7.37647C27.3157 6.9313 26.464 6.69606 25.5984 6.69606H25.1563V5.6717C25.1563 5.02565 24.6376 4.5 24 4.5C23.3625 4.5 22.8437 5.02565 22.8437 5.6717V6.69606H22.4016C21.536 6.69606 20.6843 6.9313 19.9384 7.37647L5.6505 15.9037C5.50777 15.9889 5.45805 16.1738 5.53839 16.3206C5.58658 16.4086 6.74173 18.4823 8.80986 19.1231C10.5669 19.6675 12.5752 19.0917 13.1761 18.8922C13.6899 19.3364 15.5451 20.8139 17.894 21.1888C19.6031 21.4614 21.6087 21.221 22.8437 21.0095V30.1987H16.1294C15.9607 30.1987 15.8239 30.3373 15.8239 30.5083V33.5406C15.8239 33.7116 15.9607 33.8502 16.1294 33.8502H20.5673L21.6376 37.3123L18.1511 43.0277C18.0928 43.1232 18.0901 43.2431 18.1441 43.3412C18.198 43.4393 18.3001 43.5 18.4109 43.5H20.5877C20.6956 43.5 20.7955 43.4423 20.8505 43.3483L22.8437 39.9396V43.1903C22.8437 43.3613 22.9805 43.4998 23.1492 43.4998H24.8509C25.0196 43.4998 25.1563 43.3613 25.1563 43.1903V39.9394L27.1496 43.3481C27.2046 43.4422 27.3044 43.4998 27.4123 43.4998H29.5891C29.6999 43.4998 29.802 43.4391 29.856 43.3411C29.9099 43.2429 29.9072 43.1231 29.8489 43.0275L26.3624 37.3121L27.4327 33.85H31.8706C32.0393 33.85 32.1761 33.7114 32.1761 33.5405V30.5081C32.1761 30.3372 32.0393 30.1986 31.8706 30.1986H25.1563V21.0094C25.9964 21.1533 27.1926 21.3106 28.4103 21.3106C28.9825 21.3106 29.5594 21.2759 30.1059 21.1887C32.4549 20.8139 34.3102 19.3363 34.8239 18.8921C35.4248 19.0916 37.433 19.6675 39.1901 19.123C41.2582 18.4822 42.4134 16.4085 42.4616 16.3205C42.542 16.1738 42.4923 15.9889 42.3495 15.9037ZM41.4749 16.1002C40.7262 16.334 39.3601 16.6536 37.8719 16.4787C35.7343 16.2273 33.5009 14.7334 33.2887 14.5885L25.6245 7.31549C26.3721 7.32014 27.1071 7.5252 27.7516 7.90978L41.4749 16.1002ZM29.0727 16.781C27.2107 17.1548 25.0132 16.7607 24.3055 16.6122V7.31511H24.7302L32.6556 14.836C32.1502 15.3106 30.806 16.4331 29.0727 16.781ZM18.9274 16.781C17.194 16.433 15.8496 15.3105 15.3445 14.836L23.2699 7.31511H23.6946V16.6122C22.9869 16.7607 20.7895 17.1549 18.9274 16.781ZM23.4546 5.6717C23.4546 5.36697 23.6993 5.11905 24 5.11905C24.3008 5.11905 24.5455 5.36697 24.5455 5.6717V6.69606H23.4547V5.6717H23.4546ZM20.2485 7.90978C20.893 7.5252 21.628 7.32014 22.3756 7.31549L14.7114 14.5885C14.4992 14.7333 12.2658 16.2273 10.1282 16.4787C8.63979 16.6537 7.27363 16.3341 6.52515 16.1003L20.2485 7.90978ZM8.98856 18.531C7.90298 18.1947 7.08271 17.3796 6.59281 16.7686C7.42568 17.0063 8.74517 17.2642 10.1985 17.0936C12.2063 16.8575 14.2133 15.65 14.8627 15.2286C14.9601 15.3232 15.0948 15.4482 15.2624 15.5906L13.0636 18.2768C12.6581 18.4158 10.6505 19.0461 8.98856 18.531ZM17.9891 20.5772C15.9473 20.2514 14.2567 18.9869 13.672 18.5034L15.7438 15.9723C16.4724 16.5116 17.5347 17.1325 18.8087 17.3883C20.2307 17.6737 21.7925 17.5469 22.8437 17.3929V20.3814C21.6604 20.5898 19.6631 20.8443 17.9891 20.5772ZM21.2076 33.85H23.6946V37.0451H22.1953L21.2076 33.85ZM20.4136 42.8808H18.9588L22.1411 37.6641H23.4639L20.4136 42.8808ZM24.5454 42.8808H23.4546V38.8945L24 37.9618L24.5455 38.8945V42.8808H24.5454ZM29.0413 42.8808H27.5865L24.5362 37.6641H25.859L29.0413 42.8808ZM25.8048 37.0451H24.3055V33.85H26.7925L25.8048 37.0451ZM31.5652 33.231H16.4349V30.8176H31.5652V33.231ZM23.4546 30.1986V17.2916C23.7121 17.2438 23.9018 17.2019 24 17.1791C24.0983 17.2019 24.2878 17.2438 24.5455 17.2916V30.1986H23.4546ZM30.011 20.5772C28.3368 20.8443 26.3396 20.5899 25.1564 20.3814V17.3929C25.751 17.4801 26.5088 17.5585 27.3127 17.5585C27.9297 17.5585 28.574 17.5123 29.1914 17.3884C30.4654 17.1326 31.5277 16.5117 32.2563 15.9724L34.3281 18.5035C33.7433 18.987 32.0526 20.2514 30.011 20.5772ZM39.0115 18.531C37.3493 19.046 35.3413 18.4155 34.9365 18.2768L32.7377 15.5906C32.9053 15.4482 33.0399 15.3232 33.1374 15.2286C33.7867 15.6499 35.7938 16.8575 37.8015 17.0936C39.2549 17.2644 40.5742 17.0066 41.4071 16.7688C40.9172 17.3798 40.0969 18.1947 39.0115 18.531Z" fill="currentColor"/>
</svg>
