<?xml version="1.0" encoding="UTF-8"?>
<svg xmlns="http://www.w3.org/2000/svg" version="1.1" viewBox="0 0 100 100">
  <defs>
    <style>
      .cls-1 {
        fill: #868788;
      }
    </style>
  </defs>
  <!-- Generator: Adobe Illustrator 28.6.0, SVG Export Plug-In . SVG Version: 1.2.0 Build 709)  -->
  <g>
    <g id="Layer_1">
      <g id="luggage">
        <path class="cls-1" d="M-38.1,88.5h-37.1c-2.4,0-4.4-2-4.4-4.4v-1.4h-10.7c.9,2.2-.1,4.6-2.3,5.5s-4.6-.1-5.5-2.3c-.4-1-.4-2.2,0-3.2h-3.1c-2.7,0-4.8-2.2-4.8-4.8V29c0-2.7,2.2-4.9,4.8-4.9h9.1v-5.6c-2.1,0-3.8-1.7-3.7-3.8,0-2,1.6-3.6,3.7-3.7h16.5c2.1,0,3.7,1.7,3.7,3.8,0,2-1.7,3.7-3.7,3.7v5.6h8.9c2.7,0,4.8,2.2,4.8,4.9v18.5c0,0,10.5,0,10.6,0,1.9,0,3.5,1.6,3.5,3.5v5.4h9.8c2.4,0,4.4,2,4.4,4.4v23.3c0,2.4-2,4.4-4.4,4.4ZM-42.6,85.9h4.5c1,0,1.9-.8,1.9-1.9v-23.3c0-1-.8-1.9-1.9-1.9h-4.5v27ZM-68.2,85.9h23v-27h-23v27ZM-77.1,81.4v2.6c0,1,.8,1.9,1.9,1.9h4.5v-27h-3.8c-1.1-.3-2.2.4-2.5,1.5,0,.1,0,.3,0,.4v20.4c0,0,0,.2,0,.3h0ZM-96,84.2c0,.9.6,1.6,1.5,1.6,0,0,0,0,.1,0,.9,0,1.6-.7,1.6-1.6s-.7-1.6-1.6-1.6c0,0,0,0,0,0-.9,0-1.6.6-1.6,1.5,0,0,0,0,0,.1h0ZM-101.3,26.7c-1.3,0-2.3,1-2.3,2.3v48.8c0,1.2,1,2.3,2.3,2.3h21.6v-19.3c0-2.2,1.6-4,3.7-4.4v-20.1c0-.7.6-1.3,1.3-1.3s1.3.6,1.3,1.3v20.1h8c.2-2-.5-6.4.8-7.6v-19.7c0-1.3-1-2.3-2.3-2.3h-9.9c-6.1,0-18.4,0-24.5,0ZM-62.8,56.3h12.3v-5.4c0-.5-.4-.9-.9-.9h-10.5c-.2,0-.3,0-.5.1-.3.2-.4.5-.4.8v5.4ZM-89.6,24.1h11.2v-5.6h-11.2v5.6ZM-92.2,13.6c-.6,0-1.1.5-1.1,1.2,0,.6.5,1.1,1.2,1.1-.6,0,15,0,15.1,0h1.3c.6,0,1.1-.4,1.1-1,0,0,0,0,0-.1,0-.6-.4-1.1-1-1.1,0,0,0,0-.1,0h-16.5ZM-84.1,71.7c-.7,0-1.3-.6-1.3-1.3h0v-34.2c0-.7.6-1.3,1.3-1.3s1.3.6,1.3,1.3v34.2c0,.7-.6,1.3-1.3,1.3h0ZM-93.5,71.7c-.7,0-1.3-.6-1.3-1.3h0v-34.2c0-.7.6-1.3,1.3-1.3s1.3.6,1.3,1.3v34.2c0,.7-.6,1.3-1.3,1.3h0Z"/>
      </g>
      <path class="cls-1" d="M79.3,66c1.4-2,1.1-4.8-.8-6.4,2-1.7,2.2-4.8.5-6.8-.9-1.1-2.3-1.7-3.7-1.7h-5.5c1.2-2,.8-4.5-1-6,2-1.7,2.2-4.8.5-6.8-.7-.8-1.7-1.4-2.7-1.6,6.1-1.7,11.9-4.4,17.2-7.9l3-2c.6-.4.7-1.1.4-1.7,0,0,0,0,0-.1l-1.3-1.7c-5.5-6.8-13.7-10.8-22.5-10.8h-26.5c-8.8,0-17,4-22.5,10.8l-1.3,1.7c-.4.5-.3,1.3.2,1.7,0,0,0,0,.1,0l3,2c5.2,3.5,10.9,6.1,16.8,7.8h-8.4c-2.7,0-4.8,2.1-4.8,4.8,0,1.4.6,2.7,1.7,3.7-2,1.7-2.2,4.8-.5,6.8.5.6,1.1,1,1.8,1.3-3.5,3-4,8.3-1,11.9.2.2.3.4.5.6h-3.8c-3.3,0-6,2.7-6,6s.9,3.7,2.4,4.8c-2.7,2-3.2,5.8-1.2,8.4,1.1,1.5,2.9,2.4,4.8,2.4h57.9c6,0,10.8-4.8,10.9-10.8,0-4.9-3.3-9.3-8.1-10.5ZM17.5,26.9c-.8-.5-1.4-1-1.9-1.3.2-.2.3-.4.5-.7,5-6.3,12.6-9.9,20.6-9.9h26.5c8,0,15.6,3.6,20.6,9.9.2.3.4.5.5.7-.5.3-1.1.7-1.9,1.3-9.6,6.4-20.9,9.8-32.5,9.8-11.6,0-22.9-3.4-32.5-9.8ZM22.3,41.6c0-1.3,1.1-2.4,2.4-2.4h41c1.3,0,2.4,1.1,2.4,2.4s-1.1,2.4-2.4,2.4H24.7c-1.3,0-2.4-1.1-2.4-2.4ZM24.7,51.2c-1.3,0-2.4-1.1-2.4-2.4s1.1-2.4,2.4-2.4h41c1.3,0,2.4,1.1,2.4,2.4s-1.1,2.4-2.4,2.4H24.7ZM22.3,59.6c0-3.3,2.7-6,6-6h47c1.3,0,2.4,1.1,2.4,2.4s-1.1,2.4-2.4,2.4H25.9v2.4h49.4c1.3,0,2.4,1.1,2.4,2.4s-1.1,2.4-2.4,2.4H28.3c-3.3,0-6-2.7-6-6ZM76.5,85H18.7c-2,0-3.6-1.6-3.6-3.6s1.6-3.6,3.6-3.6h60.3v-2.4H18.7c-2,0-3.6-1.6-3.6-3.6s1.6-3.6,3.6-3.6h57.9c4.7,0,8.4,3.8,8.4,8.4s-3.8,8.4-8.4,8.4h0Z"/>
    </g>
  </g>
</svg>