<svg width="48" height="48" viewBox="0 0 48 48" fill="none" xmlns="http://www.w3.org/2000/svg">
<path d="M32.2541 24.2833H15.7519C15.1216 24.2833 14.6128 23.7688 14.6128 23.1444V6.64469C14.6128 6.01453 15.1274 5.5 15.7519 5.5H32.2541C32.8843 5.5 33.3932 6.01453 33.3932 6.64469V23.1444C33.399 23.7745 32.8843 24.2833 32.2541 24.2833ZM15.7519 6.06656C15.4339 6.06656 15.1794 6.32094 15.1794 6.63891V23.1386C15.1794 23.4566 15.4339 23.7109 15.7519 23.7109H32.2541C32.5721 23.7109 32.8265 23.4566 32.8265 23.1386V6.64469C32.8265 6.32672 32.5721 6.07234 32.2541 6.07234H15.7519V6.06656Z" fill="currentColor"/>
<path d="M23.1471 42.5H6.64486C6.01461 42.5 5.5 41.9855 5.5 41.3611V24.8556C5.5 24.2255 6.01461 23.7109 6.64486 23.7109H23.1471C23.7773 23.7109 24.2919 24.2255 24.2919 24.8556V41.3553C24.2862 41.9855 23.7773 42.5 23.1471 42.5ZM6.64486 24.2833C6.32685 24.2833 6.07243 24.5377 6.07243 24.8556V41.3553C6.07243 41.6733 6.32685 41.9277 6.64486 41.9277H23.1471C23.4651 41.9277 23.7195 41.6733 23.7195 41.3553V24.8556C23.7195 24.5377 23.4651 24.2833 23.1471 24.2833H6.64486Z" fill="currentColor"/>
<path d="M41.3667 42.5H24.8588C24.2285 42.5 23.7197 41.9855 23.7197 41.3611V24.8556C23.7197 24.2255 24.2343 23.7109 24.8588 23.7109H41.361C41.9912 23.7109 42.5 24.2255 42.5 24.8556V41.3553C42.5058 41.9855 41.9912 42.5 41.3667 42.5ZM24.8588 24.2833C24.5407 24.2833 24.2863 24.5377 24.2863 24.8556V41.3553C24.2863 41.6733 24.5407 41.9277 24.8588 41.9277H41.361C41.679 41.9277 41.9334 41.6733 41.9334 41.3553V24.8556C41.9334 24.5377 41.679 24.2833 41.361 24.2833H24.8588ZM19.0188 40.3205C18.7644 40.3205 18.51 40.2684 18.2729 40.1586C17.8161 39.9505 17.4634 39.5516 17.3131 39.0717L16.81 37.4761L12.6758 37.6091L11.9646 39.2278C11.7622 39.6845 11.3979 40.0256 10.9238 40.1933C10.4555 40.3609 9.95241 40.3262 9.50719 40.1008C8.68034 39.6787 8.32185 38.7075 8.663 37.8461L12.9591 27.1045C13.2482 26.3877 13.9305 25.9252 14.7053 25.9252C15.4628 25.9252 16.1451 26.3761 16.44 27.0756L20.9096 37.7362C21.2854 38.6381 20.8633 39.6845 19.9671 40.0661L19.7242 40.1702C19.4987 40.2742 19.2617 40.3205 19.0188 40.3205ZM17.0124 36.9037C17.1338 36.9037 17.2437 36.9847 17.2842 37.1003L17.8508 38.8983C17.9549 39.2278 18.192 39.4937 18.5042 39.6383C18.8222 39.7828 19.1749 39.7886 19.4929 39.6498L19.7358 39.5458C20.3487 39.2798 20.632 38.5687 20.3776 37.9559L15.9138 27.2953C15.7114 26.8097 15.2373 26.4917 14.7053 26.4917C14.1676 26.4917 13.6877 26.8155 13.4911 27.3127L9.19495 38.0542C8.95789 38.6439 9.20652 39.303 9.76739 39.592C10.0681 39.7481 10.415 39.7713 10.733 39.6556C11.051 39.54 11.3054 39.3087 11.4384 38.9966L12.2248 37.2159C12.2711 37.1177 12.3693 37.0483 12.4792 37.0483L17.0066 36.9037H17.0124Z" fill="currentColor"/>
<path d="M16.3647 35.4239H13.1036C13.011 35.4239 12.9301 35.3776 12.8723 35.3082C12.8202 35.2331 12.8029 35.1406 12.8318 35.0539L14.3236 30.3479C14.3583 30.2323 14.4681 30.1514 14.5896 30.1514C14.7283 30.1514 14.8209 30.2207 14.8613 30.3364L16.6307 35.0423C16.6654 35.129 16.6538 35.2273 16.596 35.3025C16.5439 35.3776 16.4572 35.4239 16.3647 35.4239ZM13.491 34.8573H15.9542L14.6185 31.3076L13.491 34.8573ZM34.1679 40.2859C32.2309 40.2859 30.4095 39.5228 29.0449 38.1468C27.6861 36.7709 26.9518 34.944 26.9749 33.0073C27.0269 29.2148 30.1551 26.0351 33.9539 25.9253C35.2549 25.8964 36.5443 26.2086 37.6834 26.8445C38.1633 27.1162 38.4929 27.5845 38.5796 28.1222C38.6664 28.6598 38.5103 29.1975 38.1518 29.6021C37.5736 30.2439 36.6426 30.4115 35.9372 30.0068C35.3995 29.6947 34.7866 29.5328 34.1679 29.5328C33.0808 29.5328 32.069 30.0184 31.3809 30.8682C30.6986 31.7123 30.4384 32.8107 30.6697 33.8861C30.9646 35.2736 32.1094 36.372 33.5145 36.6206C34.5148 36.794 35.5035 36.5628 36.3015 35.9673C36.9549 35.4759 37.8974 35.5337 38.5334 36.1003C38.9439 36.4645 39.1636 36.9906 39.1347 37.5398C39.1116 38.0832 38.8456 38.5747 38.412 38.8926C37.1804 39.8061 35.7117 40.2859 34.1679 40.2859ZM34.1679 26.4918C34.1043 26.4918 34.0407 26.4918 33.9771 26.4918C30.4789 26.5901 27.5994 29.5154 27.5473 33.0131C27.5242 34.7937 28.2007 36.4761 29.4497 37.7422C30.7044 39.014 32.3812 39.7136 34.1679 39.7136C35.5845 39.7136 36.9433 39.2684 38.0824 38.4243C38.3773 38.2047 38.5565 37.8693 38.5739 37.4993C38.5912 37.1236 38.4409 36.7651 38.1575 36.5165C37.7239 36.1292 37.0879 36.0829 36.6484 36.4125C35.7233 37.1062 34.5784 37.3779 33.422 37.1698C31.7914 36.8807 30.4615 35.6031 30.1204 33.9959C29.8544 32.7529 30.1551 31.4811 30.9472 30.504C31.7394 29.5212 32.9189 28.9604 34.1737 28.9604C34.8964 28.9604 35.6076 29.1512 36.2263 29.5097C36.7004 29.7871 37.3365 29.6657 37.7297 29.2206C37.9783 28.9431 38.0824 28.5789 38.0246 28.2147C37.961 27.8447 37.7412 27.5209 37.4117 27.3359C36.4171 26.7867 35.3012 26.4918 34.1679 26.4918ZM25.5351 21.7917H20.3312C19.701 21.7917 19.1921 21.2829 19.1921 20.6528V8.88793C19.1921 8.25777 19.701 7.74902 20.3312 7.74902H24.8586C26.2868 7.9398 27.3565 8.66824 27.9 9.80715C28.4609 10.9865 28.3568 12.4607 27.6225 13.7904C28.9408 15.097 29.4843 16.8256 29.068 18.4559C28.6459 20.1036 27.3507 21.3523 25.6103 21.7859C25.5814 21.7859 25.5583 21.7917 25.5351 21.7917ZM24.8182 8.3098H20.3312C20.019 8.3098 19.7588 8.56418 19.7588 8.88215V20.647C19.7588 20.9592 20.0132 21.2193 20.3312 21.2193H25.5005C27.0212 20.832 28.1487 19.7451 28.5129 18.3114C28.9003 16.8025 28.3742 15.2473 27.0674 14.0506C26.9691 13.9581 26.946 13.8078 27.0154 13.6921C27.7555 12.4723 27.8885 11.1137 27.3796 10.05C26.9286 9.09027 26.0151 8.47746 24.8182 8.3098Z" fill="currentColor"/>
<path d="M23.818 13.2352H22.0255C21.8694 13.2352 21.7422 13.108 21.7422 12.952V10.4024C21.7422 10.2463 21.8694 10.1191 22.0255 10.1191H23.818C24.6795 10.1191 25.3791 10.8187 25.3791 11.6801C25.3734 12.5357 24.6737 13.2352 23.818 13.2352ZM22.3088 12.6629H23.818C24.3615 12.6629 24.8067 12.2177 24.8067 11.6743C24.8067 11.1309 24.3615 10.6857 23.818 10.6857H22.3088V12.6629Z" fill="currentColor"/>
<path d="M24.3497 19.1148H21.9559C21.7998 19.1148 21.6726 18.9876 21.6726 18.8315V15.4263C21.6726 15.2703 21.7998 15.1431 21.9559 15.1431H24.3497C25.4483 15.1431 26.3388 16.0334 26.3388 17.1318C26.333 18.2245 25.4426 19.1148 24.3497 19.1148ZM22.2393 18.5482H24.3497C25.1303 18.5482 25.7664 17.9123 25.7664 17.1318C25.7664 16.3513 25.1303 15.7154 24.3497 15.7154H22.2393V18.5482Z" fill="currentColor"/>
</svg>
