<svg width="48" height="48" viewBox="0 0 48 48" fill="none" xmlns="http://www.w3.org/2000/svg">
<path d="M41.9166 11.5C38.1493 11.5 11.8408 11.5 6.08336 11.5C4.93461 11.5 4 12.4458 4 13.6083V34.3917C4 35.5542 4.93461 36.5 6.08336 36.5C10.3628 36.5 36.2878 36.5 41.9166 36.5C43.0654 36.5 44 35.5542 44 34.3917V13.6082C44 12.4458 43.0654 11.5 41.9166 11.5ZM43.1666 13.6082V20.766L17.6171 20.7686C18.8372 20.3348 20.1187 19.7967 20.5947 19.3152C21.6558 18.2414 21.6561 16.4995 20.5945 15.4256C19.5334 14.3517 17.8084 14.3509 16.7487 15.4232C16.2723 15.9052 15.7409 17.204 15.3126 18.4402V12.3431H41.9167C42.6059 12.3432 43.1666 12.9107 43.1666 13.6082ZM15.508 20.5726C16.0168 18.8495 16.817 16.5466 17.3377 16.0195C18.0707 15.2778 19.2673 15.2753 20.0052 16.0219C20.7408 16.7664 20.7409 17.9743 20.0054 18.719C19.4846 19.2459 17.2101 20.0567 15.508 20.5726ZM6.08336 12.3432H14.4791V18.4292C14.0515 17.1964 13.5216 15.9038 13.0469 15.4233C11.9869 14.351 10.2619 14.3523 9.20109 15.4258C8.13977 16.4994 8.13953 18.2412 9.20086 19.3153C9.67711 19.7971 10.9595 20.3353 12.1801 20.7693L4.83344 20.7701V13.6083C4.83336 12.9107 5.39406 12.3432 6.08336 12.3432ZM14.2874 20.5728C12.5855 20.0569 10.3109 19.2461 9.79 18.719C9.05453 17.9744 9.05445 16.7664 9.79023 16.0219C10.5243 15.2791 11.7211 15.2745 12.4577 16.0195C12.9783 16.5463 13.7784 18.8493 14.2874 20.5728ZM4.83336 34.3917V21.6134H13.8908L10.9434 24.5961C10.7806 24.7607 10.7806 25.0276 10.9434 25.1923C11.1061 25.357 11.3698 25.357 11.5326 25.1923L14.4791 22.2105V35.6568H6.08336C5.39406 35.6567 4.83336 35.0893 4.83336 34.3917ZM41.9166 35.6567H15.3125V22.2065L17.9683 24.894C18.1309 25.0586 18.3948 25.0586 18.5575 24.894C18.7202 24.7294 18.7202 24.4625 18.5575 24.2978L15.9045 21.6131L43.1666 21.6091V34.3916C43.1666 35.0903 42.607 35.6567 41.9166 35.6567Z" fill="currentColor"/>
<path d="M25.1259 26.3667H33.3531C33.5832 26.3667 33.7698 26.1779 33.7698 25.9451C33.7698 25.7122 33.5832 25.5234 33.3531 25.5234H25.1259C24.8959 25.5234 24.7093 25.7122 24.7093 25.9451C24.7093 26.1779 24.8959 26.3667 25.1259 26.3667ZM37.5541 28.2122H20.9247C20.6946 28.2122 20.5081 28.401 20.5081 28.6338C20.5081 28.8666 20.6946 29.0554 20.9247 29.0554H37.5541C37.7841 29.0554 37.9707 28.8666 37.9707 28.6338C37.9707 28.401 37.7842 28.2122 37.5541 28.2122ZM37.5541 30.9008H20.9247C20.6946 30.9008 20.5081 31.0896 20.5081 31.3224C20.5081 31.5553 20.6946 31.744 20.9247 31.744H37.5541C37.7841 31.744 37.9707 31.5553 37.9707 31.3224C37.9708 31.0896 37.7842 30.9008 37.5541 30.9008Z" fill="currentColor"/>
</svg>
