<svg width="48" height="48" viewBox="0 0 48 48" fill="none" xmlns="http://www.w3.org/2000/svg">
<path d="M33.1429 20.1904V26.2857M10.2857 35.4285C9.06667 35.4285 8 36.4952 8 37.7142V40H40V37.7142C40 36.4952 38.9333 35.4285 37.7143 35.4285H10.2857Z" stroke="currentColor" stroke-linecap="round" stroke-linejoin="round"/>
<path d="M34.6667 8H10.2857C9.06667 8 8 9.06667 8 10.2857V14.8571C8 16.0762 9.06667 17.1429 10.2857 17.1429H11.8095C12.2667 19.8857 12.5714 22.781 12.5714 25.5238C12.5714 28.8762 12.1143 32.2286 11.3524 35.4286H21.7143V17.1429H29.3333V17.9048C29.3333 19.1238 30.4 20.1905 31.619 20.1905H34.6667C35.8857 20.1905 36.9524 19.1238 36.9524 17.9048V10.2857C36.9524 9.06667 35.8857 8 34.6667 8Z" stroke="currentColor" stroke-linecap="round" stroke-linejoin="round"/>
<path d="M16.381 28.5717C16.8018 28.5717 17.143 28.2305 17.143 27.8098C17.143 27.389 16.8018 27.0479 16.381 27.0479C15.9603 27.0479 15.6191 27.389 15.6191 27.8098C15.6191 28.2305 15.9603 28.5717 16.381 28.5717Z" stroke="currentColor" stroke-linecap="round" stroke-linejoin="round"/>
<path d="M16.381 23.2382C16.8018 23.2382 17.143 22.897 17.143 22.4763C17.143 22.0555 16.8018 21.7144 16.381 21.7144C15.9603 21.7144 15.6191 22.0555 15.6191 22.4763C15.6191 22.897 15.9603 23.2382 16.381 23.2382Z" stroke="currentColor" stroke-linecap="round" stroke-linejoin="round"/>
<path d="M18.6668 11.0479V14.0955M14.0953 11.0479H23.2382C24.1525 11.0479 24.762 11.6574 24.762 12.5717C24.762 13.4859 24.1525 14.0955 23.2382 14.0955H14.0953C13.1811 14.0955 12.5715 13.4859 12.5715 12.5717C12.5715 11.6574 13.1811 11.0479 14.0953 11.0479ZM40.0001 27.8098C40.0001 32.0764 36.6477 35.4288 32.3811 35.4288C28.1144 35.4288 24.762 32.0764 24.762 27.8098V26.2859H40.0001V27.8098Z" stroke="currentColor" stroke-linecap="round" stroke-linejoin="round"/>
</svg>
